<?xml version="1.0" encoding="UTF-8"?>
<svg xmlns="http://www.w3.org/2000/svg" xmlns:xlink="http://www.w3.org/1999/xlink" width="3826.771654" height="6803.149606" viewBox="0 0 3826.771654 6803.149606">
<path fill-rule="nonzero" fill="rgb(96.470588%, 96.078431%, 95.686275%)" fill-opacity="1" d="M -44.449219 -35.984375 L 1993.898438 -35.984375 L 1993.898438 1246.714844 L -44.449219 1246.714844 Z M -44.449219 -35.984375 "/>
<path fill-rule="nonzero" fill="rgb(18.039216%, 20.392157%, 21.176471%)" fill-opacity="1" d="M 627.023438 647.527344 L 627.023438 435.867188 L 663.265625 435.867188 L 663.265625 521.691406 L 720.09375 521.691406 L 720.09375 435.867188 L 756.335938 435.867188 L 756.335938 647.527344 L 720.09375 647.527344 L 720.09375 554.453125 L 663.265625 554.453125 L 663.265625 647.527344 Z M 847.375 647.527344 L 847.375 570.691406 L 785.328125 435.867188 L 823.605469 435.867188 L 856.367188 509.222656 C 858.882812 515.023438 861.007812 520.726562 862.746094 526.332031 C 864.484375 531.9375 865.644531 536.285156 866.226562 539.378906 C 867 536.285156 868.207031 531.9375 869.851562 526.332031 C 871.492188 520.726562 873.570312 515.023438 876.085938 509.222656 L 908.265625 435.867188 L 945.960938 435.867188 L 883.910156 570.691406 L 883.910156 647.527344 Z M 974.949219 647.527344 L 974.949219 435.867188 L 1045.40625 435.867188 C 1059.515625 435.867188 1071.835938 438.574219 1082.375 443.988281 C 1092.90625 449.398438 1101.074219 456.984375 1106.875 466.746094 C 1112.671875 476.507812 1115.570312 487.960938 1115.570312 501.101562 C 1115.570312 514.246094 1112.671875 525.699219 1106.875 535.460938 C 1101.074219 545.222656 1092.90625 552.808594 1082.375 558.222656 C 1071.835938 563.636719 1059.515625 566.34375 1045.40625 566.34375 L 1011.195312 566.34375 L 1011.195312 647.527344 Z M 1011.195312 534.453125 L 1045.40625 534.453125 C 1055.648438 534.453125 1063.765625 531.359375 1069.757812 525.171875 C 1075.75 518.984375 1078.75 510.960938 1078.75 501.101562 C 1078.75 491.246094 1075.75 483.226562 1069.757812 477.042969 C 1063.765625 470.855469 1055.648438 467.761719 1045.40625 467.761719 L 1011.195312 467.761719 Z M 1148.914062 647.527344 L 1148.914062 435.867188 L 1215.605469 435.867188 C 1229.710938 435.867188 1241.9375 438.480469 1252.273438 443.699219 C 1262.617188 448.917969 1270.6875 456.214844 1276.488281 465.59375 C 1282.289062 474.964844 1285.191406 486.027344 1285.191406 498.78125 C 1285.191406 512.898438 1281.710938 525.222656 1274.75 535.753906 C 1267.792969 546.292969 1258.417969 553.78125 1246.625 558.222656 L 1288.085938 647.527344 L 1248.367188 647.527344 L 1211.25 563.441406 L 1184.871094 563.441406 L 1184.871094 647.527344 Z M 1184.871094 531.546875 L 1215.605469 531.546875 C 1225.84375 531.546875 1233.867188 528.746094 1239.664062 523.136719 C 1245.46875 517.53125 1248.367188 509.800781 1248.367188 499.941406 C 1248.367188 490.085938 1245.417969 482.257812 1239.519531 476.457031 C 1233.625 470.660156 1225.652344 467.761719 1215.605469 467.761719 L 1184.871094 467.761719 Z M 604.699219 351.785156 "/>
<path fill-rule="nonzero" fill="rgb(17.647059%, 48.235294%, 85.490196%)" fill-opacity="1" d="M 629.464844 645.828125 L 629.464844 434.171875 L 665.710938 434.171875 L 665.710938 519.992188 L 722.539062 519.992188 L 722.539062 434.171875 L 758.78125 434.171875 L 758.78125 645.828125 L 722.539062 645.828125 L 722.539062 552.757812 L 665.710938 552.757812 L 665.710938 645.828125 Z M 849.820312 645.828125 L 849.820312 568.992188 L 787.773438 434.171875 L 826.050781 434.171875 L 858.8125 507.527344 C 861.324219 513.324219 863.449219 519.027344 865.191406 524.632812 C 866.929688 530.238281 868.089844 534.589844 868.671875 537.683594 C 869.445312 534.589844 870.652344 530.238281 872.296875 524.632812 C 873.9375 519.027344 876.015625 513.324219 878.527344 507.527344 L 910.710938 434.171875 L 948.402344 434.171875 L 886.355469 568.992188 L 886.355469 645.828125 Z M 977.394531 645.828125 L 977.394531 434.171875 L 1047.851562 434.171875 C 1061.960938 434.171875 1074.28125 436.878906 1084.820312 442.292969 C 1095.351562 447.703125 1103.519531 455.285156 1109.316406 465.046875 C 1115.117188 474.808594 1118.015625 486.261719 1118.015625 499.40625 C 1118.015625 512.550781 1115.117188 524 1109.316406 533.761719 C 1103.519531 543.523438 1095.351562 551.113281 1084.820312 556.527344 C 1074.28125 561.9375 1061.960938 564.644531 1047.851562 564.644531 L 1013.640625 564.644531 L 1013.640625 645.828125 Z M 1013.640625 532.753906 L 1047.851562 532.753906 C 1058.09375 532.753906 1066.210938 529.660156 1072.203125 523.472656 C 1078.195312 517.285156 1081.195312 509.261719 1081.195312 499.40625 C 1081.195312 489.546875 1078.195312 481.527344 1072.203125 475.34375 C 1066.210938 469.15625 1058.09375 466.0625 1047.851562 466.0625 L 1013.640625 466.0625 Z M 1151.359375 645.828125 L 1151.359375 434.171875 L 1218.046875 434.171875 C 1232.15625 434.171875 1244.378906 436.78125 1254.71875 442.003906 C 1265.0625 447.21875 1273.132812 454.519531 1278.929688 463.894531 C 1284.734375 473.265625 1287.636719 484.332031 1287.636719 497.085938 C 1287.636719 511.199219 1284.15625 523.523438 1277.195312 534.058594 C 1270.238281 544.59375 1260.863281 552.082031 1249.070312 556.527344 L 1290.53125 645.828125 L 1250.8125 645.828125 L 1213.695312 561.742188 L 1187.316406 561.742188 L 1187.316406 645.828125 Z M 1187.316406 529.851562 L 1218.046875 529.851562 C 1228.289062 529.851562 1236.3125 527.046875 1242.109375 521.441406 C 1247.910156 515.835938 1250.8125 508.101562 1250.8125 498.246094 C 1250.8125 488.386719 1247.863281 480.558594 1241.964844 474.761719 C 1236.070312 468.964844 1228.097656 466.0625 1218.046875 466.0625 L 1187.316406 466.0625 Z M 607.144531 350.089844 "/>
<path fill-rule="nonzero" fill="rgb(18.039216%, 20.392157%, 21.176471%)" fill-opacity="1" d="M 1420.78125 722.273438 L 1420.78125 722.476562 L 1462.1875 777.175781 L 1420.890625 834.53125 L 1919.917969 834.53125 L 1919.917969 722.273438 Z M 1420.78125 722.273438 "/>
<path fill-rule="nonzero" fill="rgb(17.647059%, 48.235294%, 85.490196%)" fill-opacity="1" d="M 1506.660156 752.464844 C 1506.945312 753.109375 1507.480469 754.347656 1508.269531 756.179688 C 1509.0625 758.007812 1509.5625 759.191406 1509.777344 759.730469 C 1509.992188 760.269531 1510.46875 761.382812 1511.207031 763.070312 C 1511.941406 764.753906 1512.53125 766.0625 1512.980469 767 C 1513.429688 767.929688 1514.128906 769.347656 1515.082031 771.253906 C 1516.035156 773.152344 1517.003906 775.019531 1517.988281 776.851562 C 1518.972656 778.679688 1520.148438 780.921875 1521.511719 783.578125 C 1522.878906 786.234375 1524.402344 789.105469 1526.089844 792.1875 C 1524.261719 791.113281 1521.910156 790.179688 1519.039062 789.386719 C 1520.078125 789.964844 1521.089844 790.574219 1522.078125 791.21875 C 1523.066406 791.867188 1523.800781 792.351562 1524.285156 792.675781 C 1524.769531 793 1525.433594 793.5 1526.28125 794.179688 C 1527.125 794.863281 1527.652344 795.308594 1527.867188 795.527344 C 1530.054688 799.472656 1531.492188 802.128906 1532.171875 803.496094 C 1523.953125 798.757812 1517.296875 795.886719 1512.199219 794.882812 C 1512.414062 794.089844 1512.523438 793.191406 1512.523438 792.1875 C 1512.597656 789.605469 1512.085938 787.328125 1510.992188 785.355469 C 1509.894531 783.378906 1508.546875 782.339844 1506.953125 782.230469 C 1505.355469 782.125 1503.976562 782.929688 1502.808594 784.652344 C 1501.640625 786.375 1501.023438 788.53125 1500.949219 791.113281 L 1500.949219 791.433594 C 1500.949219 792.511719 1501.058594 793.660156 1501.273438 794.882812 C 1496.140625 795.886719 1489.414062 798.757812 1481.085938 803.496094 C 1490.203125 787.203125 1496.410156 775.574219 1499.714844 768.609375 C 1501.542969 770.117188 1503.984375 771.519531 1507.035156 772.8125 C 1504.734375 771.234375 1502.527344 769.292969 1500.410156 767 C 1501.5625 764.699219 1503.644531 759.855469 1506.660156 752.464844 Z M 1532.386719 798.972656 L 1532.386719 797.46875 L 1531.957031 797.46875 L 1533.140625 797.46875 C 1533.140625 797.394531 1533.140625 797.394531 1533.140625 797.46875 L 1532.605469 797.46875 L 1532.605469 798.972656 Z M 1533.464844 798.972656 L 1533.464844 797.46875 L 1533.789062 797.46875 L 1534.054688 798.433594 C 1534.128906 798.578125 1534.164062 798.683594 1534.164062 798.753906 C 1534.164062 798.683594 1534.203125 798.578125 1534.273438 798.433594 L 1534.59375 797.46875 L 1534.917969 797.46875 L 1534.917969 798.972656 L 1534.703125 798.972656 L 1534.703125 797.570312 L 1534.273438 798.972656 L 1534.054688 798.972656 L 1533.679688 797.570312 L 1533.679688 798.972656 Z M 1579.867188 797.355469 L 1589.773438 758.0625 L 1598.4375 758.0625 L 1608.398438 797.355469 L 1601.507812 797.355469 L 1599.351562 787.828125 L 1588.910156 787.828125 L 1586.757812 797.355469 Z M 1590.148438 782.339844 L 1598.117188 782.339844 L 1595.746094 771.785156 C 1595.355469 770.027344 1595.011719 768.441406 1594.722656 767.023438 C 1594.4375 765.605469 1594.238281 764.574219 1594.132812 763.925781 C 1594.027344 764.574219 1593.828125 765.605469 1593.539062 767.023438 C 1593.253906 768.441406 1592.914062 770.011719 1592.519531 771.734375 Z M 1614.425781 797.355469 L 1614.425781 758.0625 L 1626.808594 758.0625 C 1629.425781 758.0625 1631.695312 758.546875 1633.613281 759.515625 C 1635.535156 760.484375 1637.035156 761.835938 1638.113281 763.578125 C 1639.191406 765.320312 1639.730469 767.371094 1639.730469 769.742188 C 1639.730469 772.359375 1639.082031 774.648438 1637.789062 776.605469 C 1636.496094 778.5625 1634.757812 779.953125 1632.566406 780.777344 L 1640.265625 797.355469 L 1632.890625 797.355469 L 1626 781.746094 L 1621.101562 781.746094 L 1621.101562 797.355469 Z M 1621.101562 775.824219 L 1626.808594 775.824219 C 1628.710938 775.824219 1630.199219 775.304688 1631.273438 774.265625 C 1632.351562 773.222656 1632.890625 771.785156 1632.890625 769.957031 C 1632.890625 768.128906 1632.34375 766.675781 1631.25 765.597656 C 1630.152344 764.519531 1628.671875 763.980469 1626.808594 763.980469 L 1621.101562 763.980469 Z M 1659.160156 797.894531 C 1656.613281 797.894531 1654.40625 797.421875 1652.539062 796.472656 C 1650.671875 795.519531 1649.226562 794.175781 1648.207031 792.433594 C 1647.183594 790.691406 1646.671875 788.636719 1646.671875 786.269531 L 1646.671875 769.148438 C 1646.671875 766.78125 1647.183594 764.726562 1648.207031 762.984375 C 1649.226562 761.246094 1650.671875 759.902344 1652.539062 758.949219 C 1654.40625 758 1656.613281 757.523438 1659.160156 757.523438 C 1661.671875 757.523438 1663.863281 758 1665.730469 758.949219 C 1667.59375 759.902344 1669.046875 761.246094 1670.085938 762.984375 C 1671.128906 764.726562 1671.652344 766.78125 1671.652344 769.148438 L 1664.867188 769.148438 C 1664.867188 767.316406 1664.371094 765.910156 1663.386719 764.925781 C 1662.398438 763.941406 1660.988281 763.445312 1659.160156 763.445312 C 1657.332031 763.445312 1655.914062 763.941406 1654.910156 764.925781 C 1653.902344 765.910156 1653.402344 767.316406 1653.402344 769.148438 L 1653.402344 786.269531 C 1653.402344 788.097656 1653.902344 789.503906 1654.910156 790.492188 C 1655.914062 791.480469 1657.332031 791.972656 1659.160156 791.972656 C 1660.988281 791.972656 1662.398438 791.480469 1663.386719 790.492188 C 1664.371094 789.503906 1664.867188 788.097656 1664.867188 786.269531 L 1671.652344 786.269531 C 1671.652344 788.636719 1671.128906 790.691406 1670.085938 792.433594 C 1669.046875 794.175781 1667.59375 795.519531 1665.730469 796.472656 C 1663.863281 797.421875 1661.671875 797.894531 1659.160156 797.894531 Z M 1679.023438 797.355469 L 1679.023438 758.0625 L 1685.753906 758.0625 L 1685.753906 773.996094 L 1696.308594 773.996094 L 1696.308594 758.0625 L 1703.035156 758.0625 L 1703.035156 797.355469 L 1696.308594 797.355469 L 1696.308594 780.078125 L 1685.753906 780.078125 L 1685.753906 797.355469 Z M 1745.992188 797.355469 L 1745.992188 758.0625 L 1752.71875 758.0625 L 1752.71875 791.273438 L 1769.40625 791.273438 L 1769.40625 797.355469 Z M 1776.621094 797.355469 L 1776.621094 791.273438 L 1784.53125 791.273438 L 1784.53125 764.140625 L 1776.621094 764.140625 L 1776.621094 758.0625 L 1799.230469 758.0625 L 1799.230469 764.140625 L 1791.316406 764.140625 L 1791.316406 791.273438 L 1799.230469 791.273438 L 1799.230469 797.355469 Z M 1807.949219 797.355469 L 1807.949219 758.0625 L 1816.1875 758.0625 L 1827.113281 789.824219 C 1827.003906 788.671875 1826.894531 787.316406 1826.789062 785.757812 C 1826.683594 784.195312 1826.585938 782.605469 1826.496094 780.992188 C 1826.402344 779.375 1826.359375 777.941406 1826.359375 776.683594 L 1826.359375 758.0625 L 1832.496094 758.0625 L 1832.496094 797.355469 L 1824.261719 797.355469 L 1813.441406 765.597656 C 1813.511719 766.636719 1813.601562 767.890625 1813.707031 769.363281 C 1813.816406 770.835938 1813.90625 772.34375 1813.980469 773.890625 C 1814.050781 775.429688 1814.089844 776.847656 1814.089844 778.140625 L 1814.089844 797.355469 Z M 1852.519531 797.894531 C 1848.683594 797.894531 1845.679688 796.847656 1843.503906 794.746094 C 1841.335938 792.648438 1840.25 789.785156 1840.25 786.160156 L 1840.25 758.0625 L 1847.03125 758.0625 L 1847.03125 786.109375 C 1847.03125 787.972656 1847.496094 789.425781 1848.429688 790.464844 C 1849.363281 791.507812 1850.726562 792.027344 1852.519531 792.027344 C 1854.28125 792.027344 1855.636719 791.507812 1856.585938 790.464844 C 1857.539062 789.425781 1858.015625 787.972656 1858.015625 786.109375 L 1858.015625 758.0625 L 1864.796875 758.0625 L 1864.796875 786.160156 C 1864.796875 789.785156 1863.71875 792.648438 1861.566406 794.746094 C 1859.414062 796.847656 1856.398438 797.894531 1852.519531 797.894531 Z M 1870.179688 797.355469 L 1881.050781 777.222656 L 1870.828125 758.0625 L 1878.363281 758.0625 L 1883.3125 767.910156 C 1883.671875 768.628906 1883.992188 769.320312 1884.28125 769.984375 C 1884.570312 770.648438 1884.785156 771.160156 1884.929688 771.519531 C 1885.035156 771.160156 1885.234375 770.648438 1885.519531 769.984375 C 1885.804688 769.320312 1886.128906 768.628906 1886.488281 767.910156 L 1891.496094 758.0625 L 1898.816406 758.0625 L 1888.589844 777.0625 L 1899.464844 797.355469 L 1891.925781 797.355469 L 1886.382812 786.484375 C 1886.023438 785.800781 1885.691406 785.109375 1885.382812 784.410156 C 1885.078125 783.710938 1884.855469 783.164062 1884.714844 782.769531 C 1884.570312 783.164062 1884.355469 783.703125 1884.066406 784.386719 C 1883.777344 785.066406 1883.457031 785.765625 1883.097656 786.484375 L 1877.5 797.355469 Z M 1481.085938 742.449219 "/>
</svg>
